<svg width="742" height="471" viewBox="0 0 742 471" fill="none" xmlns="http://www.w3.org/2000/svg">
<path d="M642.245 397.088L456.209 261.529C448.539 255.849 439.409 252.473 429.889 251.797C420.368 251.121 410.853 253.173 402.457 257.712L398.933 259.621L179.418 371.429L244.591 470.25L426.343 350.835L597.807 461.391L642.245 397.088Z" fill="#262626"></path>
<path opacity="0.8" d="M642.245 397.088L456.209 261.529C448.539 255.849 439.409 252.473 429.889 251.797C420.368 251.121 410.853 253.173 402.457 257.712L398.933 259.621L179.418 371.429L244.591 470.25L426.343 350.835L597.807 461.391L642.245 397.088Z" fill="#0A0A0A"></path>
<path d="M54.4329 270.182C54.3322 270.202 54.2276 270.186 54.1376 270.137C54.0475 270.088 53.9778 270.008 53.9408 269.912C53.9038 269.817 53.9019 269.711 53.9354 269.614C53.9689 269.517 54.0357 269.435 54.1239 269.382L75.7039 256.245C75.8023 256.191 75.9176 256.177 76.0259 256.206C76.1342 256.235 76.2272 256.305 76.2855 256.401C76.3439 256.497 76.363 256.611 76.339 256.721C76.3151 256.83 76.2498 256.926 76.1569 256.989L54.5769 270.125C54.5327 270.152 54.4839 270.172 54.4329 270.182V270.182Z" fill="#0C0C0C"></path>
<path d="M680.145 413.987C680.145 413.987 709.788 412.287 715.023 385.444C720.258 358.601 741.023 367.359 741.023 367.359L727.172 470.749L675.516 463.829L680.145 413.987Z" fill="#367CFF"></path>
<path d="M213.642 348.934L74.9258 359.2C74.9258 359.2 68.4258 385.792 78.0868 415.983C86.0868 441.004 104.634 470.014 147.243 470.824H687.181L690.773 399.963L213.642 348.934Z" fill="#262626"></path>
<path d="M160.214 52.858C160.214 52.858 171.366 40.471 170.214 17.152C169.314 -0.903031 155.314 13.617 155.314 13.617C155.314 13.617 154.542 0.622968 145.559 3.66697C136.576 6.71097 133.979 21.02 133.979 21.02" fill="#0C0C0C"></path>
<path d="M98.131 14.386C98.131 14.386 53.2831 28.163 81.8541 87.017L85.959 86.504L94.292 85.463" fill="#0C0C0C"></path>
<path d="M168.634 137.459C168.427 137.471 173.371 174.98 129.673 180.086C99.4219 183.625 82.6659 154.047 81.9829 154.18C85.0649 152.874 88.8379 151.068 90.3479 150.406C93.6343 148.941 96.3968 146.51 98.2679 143.437C100.139 140.363 101.03 136.793 100.823 133.201C100.678 127.777 93.9929 101.177 93.4229 95.772L141.172 97.127C142.707 108.48 143.272 135.381 159.851 136.951C162.605 137.208 165.553 137.364 168.634 137.459Z" fill="#E98862"></path>
<path opacity="1" d="M147.856 128.234C146.692 126.062 145.769 123.77 145.104 121.397C143.536 115.992 142.563 110.432 142.204 104.816C132.658 105.362 123.151 103.219 114.762 98.631C114.52 101.931 112.501 116.554 114.372 119.287C117.91 124.452 131.193 131.46 147.856 128.234Z" fill="#0C0C0C"></path>
<path d="M136.989 122.725C118.618 124.602 94.797 117.377 89.74 92.925L85.177 70.862C80.12 46.412 88.8621 23.934 111.884 19.173C134.906 14.411 156.213 30.673 161.27 55.124L163.29 64.892C163.925 68.2575 164.331 71.6624 164.503 75.083C165.024 84.121 165.782 97.868 161.557 108.083C157.568 117.732 148.725 121.526 136.989 122.725Z" fill="#E98862"></path>
<path opacity="1" d="M141.029 98.7001C144.788 98.1472 148.364 96.7189 151.47 94.5301C151.534 94.4865 151.59 94.4306 151.633 94.3656C151.676 94.3006 151.705 94.2278 151.72 94.1514C151.735 94.0749 151.734 93.9962 151.719 93.9199C151.703 93.8436 151.673 93.7711 151.629 93.7066C151.586 93.642 151.53 93.5867 151.465 93.5437C151.4 93.5008 151.327 93.4711 151.25 93.4563C151.174 93.4414 151.095 93.4418 151.019 93.4574C150.943 93.473 150.87 93.5035 150.806 93.5471C144.082 98.0911 137.338 98.9221 131.306 95.9471C131.184 95.883 131.059 95.8259 130.931 95.7761C130.783 95.7276 130.621 95.7394 130.482 95.8089C130.342 95.8785 130.236 96.0001 130.185 96.1476C130.135 96.2951 130.144 96.4566 130.212 96.597C130.28 96.7374 130.4 96.8456 130.547 96.8981C130.594 96.9171 130.673 96.9571 130.782 97.0111C133.953 98.5809 137.521 99.169 141.029 98.7001V98.7001Z" fill="#0C0C0C"></path>
<path opacity="1" d="M141.924 104.254C142.605 104.166 143.278 104.019 143.934 103.815C144.009 103.793 144.079 103.756 144.141 103.707C144.202 103.658 144.252 103.597 144.29 103.527C144.327 103.458 144.35 103.383 144.358 103.304C144.366 103.226 144.358 103.147 144.335 103.072C144.312 102.997 144.274 102.927 144.224 102.867C144.174 102.807 144.112 102.757 144.043 102.72C143.973 102.684 143.897 102.662 143.819 102.655C143.74 102.648 143.662 102.657 143.587 102.681C139.637 103.89 137.354 102.415 137.258 102.351C137.128 102.263 136.968 102.23 136.813 102.26C136.658 102.29 136.522 102.38 136.434 102.51C136.346 102.64 136.313 102.8 136.343 102.955C136.373 103.11 136.463 103.246 136.593 103.334C138.21 104.248 140.094 104.573 141.924 104.254Z" fill="#0C0C0C"></path>
<path d="M155.062 66.965C156.661 66.965 157.957 65.6689 157.957 64.0701C157.957 62.4712 156.661 61.175 155.062 61.175C153.463 61.175 152.167 62.4712 152.167 64.0701C152.167 65.6689 153.463 66.965 155.062 66.965Z" fill="#0C0C0C"></path>
<path d="M129.737 71.411C131.336 71.411 132.632 70.1148 132.632 68.516C132.632 66.9171 131.336 65.621 129.737 65.621C128.138 65.621 126.842 66.9171 126.842 68.516C126.842 70.1148 128.138 71.411 129.737 71.411Z" fill="#0C0C0C"></path>
<path d="M92.7098 100.079C85.7098 101.526 78.4939 95.214 77.0469 88.218C75.5999 81.222 80.4738 76.191 87.4698 74.744L92.0449 78.686L98.7248 98.835L92.7098 100.079Z" fill="#E98862"></path>
<path d="M237.95 208.723C239.679 224.923 249.311 326.223 251.807 346.109L75.0589 380.327C70.6149 362.817 51.0659 286.275 40.5109 252.395C30.4389 220.066 22.3749 206.028 24.6209 194.941C28.5829 175.385 50.787 162.696 66.461 157.401C76.033 154.167 90.6309 150.352 90.6309 150.352C90.6309 150.352 96.785 175.43 126.904 171.061C167.904 165.112 159.645 136.99 159.846 136.951C166.428 135.677 203.183 133.528 213.272 137.632C227.522 143.432 233.437 153.945 235.584 164.242C238.056 176.1 235.992 190.348 237.95 208.723Z" fill="#367CFF"></path>
<path d="M97.5058 87.458C97.5058 87.458 93.1598 52.316 103.262 48.139C109.99 45.356 128.899 52.003 144.052 45.957C150.68 43.311 157.545 43.75 158.839 46.872C159.351 48.109 160.058 28.779 146.561 16.826C135.815 7.309 107.12 9.59 95.0518 15.726C61.6388 32.726 86.3198 76.548 86.3198 76.548L90.2119 88.2L97.5058 87.458Z" fill="#0C0C0C"></path>
<g opacity="1">
<path opacity="1" d="M143.684 89.693L143.729 89.685C145.985 89.225 149.717 88.201 149.375 86.514C149.088 85.114 142.181 70.803 141.394 69.176C141.323 69.042 141.202 68.9408 141.058 68.8937C140.913 68.8466 140.757 68.8572 140.62 68.9234C140.483 68.9895 140.378 69.106 140.325 69.2483C140.272 69.3907 140.277 69.548 140.338 69.687C143.402 76.024 148.031 85.798 148.226 86.748C148.085 87.192 145.826 88.059 143.496 88.536C143.349 88.5683 143.221 88.6554 143.136 88.7796C143.052 88.9037 143.019 89.0553 143.043 89.2034C143.067 89.3515 143.147 89.4847 143.266 89.5758C143.385 89.6668 143.535 89.7088 143.684 89.693V89.693Z" fill="#0C0C0C"></path>
</g>
<path d="M144.851 55.587C145.818 54.779 146.896 54.1123 148.051 53.6069C149.192 53.0968 150.407 52.7714 151.651 52.643C152.277 52.5831 152.907 52.5758 153.535 52.6209C154.159 52.6874 154.777 52.8102 155.379 52.988C156.56 53.3437 157.675 53.891 158.679 54.6079C158.853 54.7241 158.976 54.903 159.021 55.1075C159.067 55.312 159.032 55.5261 158.923 55.7051C158.814 55.8842 158.64 56.0143 158.438 56.0683C158.236 56.1223 158.02 56.096 157.837 55.9949L157.764 55.9539C156.885 55.4031 155.921 54.9998 154.912 54.7599C154.419 54.645 153.917 54.5747 153.412 54.5499C152.906 54.5457 152.401 54.5831 151.902 54.6619C150.893 54.8282 149.916 55.1543 149.01 55.628C148.109 56.0902 147.275 56.6725 146.531 57.3589L146.481 57.406C146.246 57.6294 145.933 57.7505 145.609 57.7428C145.285 57.735 144.978 57.5989 144.754 57.3644C144.531 57.13 144.41 56.8164 144.418 56.4926C144.425 56.1688 144.561 55.8614 144.796 55.6379L144.851 55.587Z" fill="#0C0C0C"></path>
<path d="M130.494 59.638C129.412 59.401 128.306 59.2879 127.199 59.301C126.07 59.309 124.947 59.45 123.852 59.721C122.759 59.9814 121.712 60.4023 120.743 60.97C119.767 61.538 118.876 62.2394 118.095 63.054L118.042 63.106C117.891 63.2557 117.687 63.3402 117.474 63.3412C117.262 63.3423 117.057 63.26 116.905 63.1119C116.752 62.9637 116.664 62.7617 116.658 62.5491C116.653 62.3366 116.732 62.1305 116.877 61.975C117.719 60.9895 118.695 60.1271 119.777 59.413C120.863 58.6932 122.049 58.1373 123.298 57.763C124.537 57.381 125.817 57.1461 127.111 57.063C128.426 56.9743 129.747 57.0415 131.046 57.263C131.365 57.3187 131.649 57.4989 131.835 57.7639C132.021 58.0289 132.094 58.357 132.039 58.676C131.983 58.9951 131.803 59.279 131.538 59.4652C131.273 59.6514 130.945 59.7247 130.626 59.669C130.604 59.669 130.582 59.661 130.561 59.656L130.494 59.638Z" fill="#0C0C0C"></path>
<path d="M136.852 31.1901C141.833 29.1005 143.378 21.4625 140.302 14.1303C137.226 6.79808 130.694 2.54816 125.713 4.63783C120.732 6.7275 119.187 14.3654 122.263 21.6977C125.339 29.0299 131.87 33.2798 136.852 31.1901Z" fill="#0C0C0C"></path>
<path d="M364.012 111.23C363.459 110.803 362.818 110.504 362.136 110.355C361.453 110.205 360.746 110.209 360.065 110.366C359.385 110.523 358.747 110.829 358.199 111.262C357.651 111.696 357.206 112.245 356.896 112.871L359.609 107.388C360.182 106.287 360.315 105.01 359.982 103.815C359.65 102.619 358.875 101.595 357.816 100.949C357.258 100.635 356.641 100.437 356.004 100.369C355.367 100.3 354.723 100.362 354.111 100.551C353.498 100.74 352.931 101.051 352.443 101.466C351.955 101.882 351.557 102.392 351.273 102.966L352.501 100.484C353.012 99.4947 353.166 98.359 352.936 97.2692C352.707 96.1794 352.107 95.2026 351.24 94.504C350.687 94.077 350.046 93.7781 349.364 93.6287C348.682 93.4793 347.975 93.4833 347.294 93.6403C346.613 93.7973 345.976 94.1034 345.428 94.5365C344.88 94.9697 344.435 95.519 344.125 96.145L341.974 100.492C342.528 99.3709 342.615 98.0755 342.214 96.8908C341.813 95.706 340.959 94.7288 339.838 94.174V94.174C337.446 92.787 334.698 94.795 333.608 96.999L323.456 116.647L323.756 110.285C323.838 109.047 323.447 107.824 322.663 106.863C321.879 105.902 320.759 105.274 319.53 105.106C318.892 105.042 318.249 105.108 317.638 105.301C317.027 105.494 316.461 105.809 315.976 106.228C315.491 106.647 315.096 107.16 314.816 107.736C314.536 108.312 314.376 108.939 314.346 109.579L312.018 159.532L327.208 160.675C331.926 161.03 336.642 159.967 340.753 157.624C344.863 155.281 348.18 151.764 350.278 147.523L365.278 117.211C365.789 116.221 365.942 115.085 365.711 113.995C365.48 112.905 364.88 111.928 364.012 111.23V111.23Z" fill="#E98862"></path>
<path d="M332.381 118.986C332.483 119.036 332.601 119.043 332.709 119.007C332.817 118.971 332.906 118.894 332.958 118.793L342.588 100.093C342.614 100.042 342.63 99.9867 342.635 99.9297C342.64 99.8727 342.633 99.8153 342.616 99.7608C342.599 99.7063 342.571 99.6557 342.534 99.612C342.497 99.5683 342.452 99.5323 342.401 99.506C342.35 99.4798 342.295 99.4638 342.238 99.4589C342.181 99.4541 342.123 99.4606 342.069 99.478C342.014 99.4953 341.964 99.5232 341.92 99.5601C341.876 99.597 341.84 99.6422 341.814 99.693L332.184 118.393C332.158 118.444 332.142 118.499 332.137 118.556C332.133 118.613 332.139 118.671 332.157 118.725C332.174 118.779 332.202 118.83 332.239 118.873C332.276 118.917 332.321 118.953 332.372 118.979L332.381 118.986Z" fill="#E98862"></path>
<path d="M340.51 123.46C340.612 123.509 340.73 123.517 340.837 123.481C340.945 123.445 341.035 123.369 341.087 123.268L351.834 102.401C351.86 102.35 351.876 102.295 351.881 102.238C351.885 102.181 351.879 102.123 351.861 102.069C351.844 102.015 351.816 101.964 351.779 101.921C351.742 101.877 351.697 101.841 351.646 101.815C351.543 101.766 351.425 101.759 351.316 101.794C351.207 101.828 351.116 101.903 351.06 102.003L340.313 122.869C340.26 122.972 340.25 123.091 340.285 123.201C340.321 123.312 340.398 123.403 340.501 123.456L340.51 123.46Z" fill="#E98862"></path>
<path d="M349.286 128.357C349.388 128.407 349.506 128.415 349.614 128.379C349.722 128.343 349.811 128.266 349.863 128.165L358.436 111.52C358.489 111.417 358.499 111.298 358.464 111.188C358.429 111.078 358.352 110.986 358.249 110.933C358.146 110.88 358.027 110.87 357.917 110.905C357.807 110.94 357.715 111.017 357.662 111.12L349.089 127.765C349.036 127.868 349.027 127.987 349.062 128.097C349.097 128.207 349.174 128.298 349.277 128.351L349.286 128.357Z" fill="#E98862"></path>
<g opacity="0.1">
<path opacity="0.1" d="M332.381 118.986C332.483 119.036 332.601 119.043 332.709 119.007C332.817 118.971 332.906 118.894 332.958 118.793L342.588 100.093C342.614 100.042 342.63 99.9867 342.635 99.9297C342.64 99.8727 342.633 99.8153 342.616 99.7608C342.599 99.7063 342.571 99.6557 342.534 99.612C342.497 99.5683 342.452 99.5323 342.401 99.506C342.35 99.4798 342.295 99.4638 342.238 99.4589C342.181 99.4541 342.123 99.4606 342.069 99.478C342.014 99.4953 341.964 99.5232 341.92 99.5601C341.876 99.597 341.84 99.6422 341.814 99.693L332.184 118.393C332.158 118.444 332.142 118.499 332.137 118.556C332.133 118.613 332.139 118.671 332.157 118.725C332.174 118.779 332.202 118.83 332.239 118.873C332.276 118.917 332.321 118.953 332.372 118.979L332.381 118.986Z" fill="#0C0C0C"></path>
</g>
<g opacity="0.1">
<path opacity="0.1" d="M340.51 123.46C340.612 123.509 340.73 123.517 340.837 123.481C340.945 123.445 341.035 123.369 341.087 123.268L351.834 102.401C351.86 102.35 351.876 102.295 351.881 102.238C351.885 102.181 351.879 102.123 351.861 102.069C351.844 102.015 351.816 101.964 351.779 101.921C351.742 101.877 351.697 101.841 351.646 101.815C351.543 101.766 351.425 101.759 351.316 101.794C351.207 101.828 351.116 101.903 351.06 102.003L340.313 122.869C340.26 122.972 340.25 123.091 340.285 123.201C340.321 123.312 340.398 123.403 340.501 123.456L340.51 123.46Z" fill="#0C0C0C"></path>
</g>
<g opacity="0.1">
<path opacity="0.1" d="M349.286 128.357C349.388 128.407 349.506 128.415 349.614 128.379C349.722 128.343 349.811 128.266 349.863 128.165L358.436 111.52C358.489 111.417 358.499 111.298 358.464 111.188C358.429 111.078 358.352 110.986 358.249 110.933C358.146 110.88 358.027 110.87 357.917 110.905C357.807 110.94 357.715 111.017 357.662 111.12L349.089 127.765C349.036 127.868 349.027 127.987 349.062 128.097C349.097 128.207 349.174 128.298 349.277 128.351L349.286 128.357Z" fill="#0C0C0C"></path>
</g>
<path d="M304.109 135.414L283.557 213.3L228.757 148.882L177.829 189.706L273.71 302.411L274.169 302.985C277.987 307.736 283.072 311.31 288.836 313.293C294.6 315.276 300.808 315.588 306.741 314.192C312.675 312.797 318.092 309.75 322.368 305.406C326.643 301.061 329.602 295.595 330.902 289.64L361.508 149.24L304.109 135.414Z" fill="#367CFF"></path>
<path d="M243.5 283.8C243.475 283.805 243.449 283.808 243.423 283.808C243.366 283.809 243.309 283.798 243.256 283.777C243.203 283.756 243.155 283.725 243.114 283.685C243.073 283.645 243.04 283.598 243.017 283.545C242.995 283.493 242.983 283.436 242.982 283.379L242.243 230.369C242.241 230.254 242.286 230.142 242.366 230.06C242.447 229.977 242.557 229.93 242.672 229.928C242.787 229.926 242.899 229.971 242.981 230.051C243.064 230.132 243.111 230.242 243.113 230.357L243.852 283.367C243.853 283.469 243.819 283.568 243.755 283.647C243.69 283.727 243.6 283.781 243.5 283.8Z" fill="#0C0C0C"></path>
<path d="M255.588 198.356L209.468 198.925L210.166 255.488L256.286 254.919L255.588 198.356Z" fill="#FFFAFA"></path>
<path d="M210.038 245.28C206.465 245.324 202.959 244.308 199.964 242.359C196.969 240.411 194.619 237.618 193.211 234.334C191.803 231.05 191.4 227.423 192.054 223.91C192.708 220.397 194.389 217.157 196.884 214.599C199.379 212.042 202.577 210.282 206.072 209.541C209.568 208.801 213.204 209.114 216.522 210.44C219.84 211.767 222.69 214.047 224.711 216.994C226.733 219.94 227.836 223.419 227.88 226.992C227.934 231.782 226.086 236.397 222.741 239.826C219.396 243.254 214.827 245.216 210.038 245.28V245.28ZM209.668 215.242C207.3 215.271 204.993 216.002 203.041 217.342C201.088 218.682 199.577 220.571 198.697 222.77C197.818 224.969 197.611 227.379 198.102 229.696C198.592 232.013 199.759 234.132 201.454 235.786C203.149 237.44 205.297 238.554 207.625 238.987C209.953 239.42 212.358 239.153 214.534 238.22C216.711 237.287 218.562 235.729 219.853 233.744C221.144 231.759 221.818 229.435 221.789 227.067C221.746 223.893 220.445 220.865 218.173 218.648C215.901 216.432 212.842 215.207 209.668 215.242V215.242Z" fill="#FFFAFA"></path>
<path d="M241.243 184.931C241.05 184.934 240.861 184.872 240.707 184.756C240.552 184.64 240.441 184.475 240.391 184.289C240.34 184.102 240.353 183.904 240.428 183.726C240.502 183.548 240.634 183.399 240.802 183.304C244.984 180.931 245.391 174.504 243.369 169.659C242.383 167.466 241.235 165.349 239.933 163.327C238.214 160.735 236.807 157.949 235.743 155.027C234.655 151.482 234.543 147.71 235.418 144.106C236.292 140.503 238.122 137.202 240.714 134.55C240.795 134.469 240.891 134.406 240.997 134.362C241.102 134.319 241.216 134.296 241.33 134.297C241.444 134.297 241.557 134.32 241.663 134.364C241.768 134.408 241.864 134.472 241.945 134.553C242.025 134.634 242.089 134.73 242.133 134.836C242.176 134.942 242.199 135.055 242.198 135.169C242.198 135.284 242.175 135.397 242.131 135.502C242.087 135.608 242.023 135.703 241.942 135.784C239.574 138.207 237.902 141.223 237.102 144.516C236.303 147.808 236.405 151.255 237.399 154.494C238.421 157.285 239.771 159.945 241.42 162.418C242.768 164.514 243.956 166.709 244.975 168.984C247.257 174.451 246.875 181.857 241.661 184.814C241.533 184.887 241.39 184.928 241.243 184.931Z" fill="#FFFAFA"></path>
<path d="M223.286 167.9C223.126 167.902 222.968 167.86 222.83 167.778C222.692 167.696 222.58 167.578 222.505 167.436C219.942 162.586 216.752 156.55 217.024 150.207C217.24 145.164 219.559 140.638 221.801 136.26C223.264 133.59 224.505 130.803 225.51 127.928C225.542 127.816 225.596 127.712 225.669 127.621C225.742 127.531 225.833 127.456 225.935 127.401C226.038 127.346 226.151 127.312 226.266 127.301C226.382 127.29 226.499 127.303 226.61 127.338C226.721 127.373 226.824 127.43 226.912 127.506C227.001 127.581 227.073 127.674 227.126 127.778C227.178 127.882 227.209 127.995 227.216 128.111C227.224 128.228 227.208 128.344 227.17 128.454C226.137 131.422 224.859 134.298 223.35 137.054C221.094 141.459 218.962 145.619 218.763 150.282C218.511 156.154 221.451 161.716 224.044 166.624C224.151 166.828 224.174 167.066 224.106 167.287C224.037 167.507 223.885 167.691 223.681 167.799C223.559 167.864 223.424 167.899 223.286 167.9V167.9Z" fill="#FFFAFA"></path>
<path d="M212.726 244.325C212.451 243.697 212.039 243.138 211.522 242.689C211.005 242.239 210.394 241.909 209.734 241.724C209.074 241.538 208.382 241.502 207.706 241.616C207.03 241.731 206.388 241.994 205.826 242.386L210.747 238.94C211.759 238.262 212.476 237.224 212.752 236.037C213.028 234.85 212.844 233.603 212.236 232.547C211.903 232.013 211.465 231.553 210.948 231.194C210.432 230.834 209.847 230.584 209.231 230.459C208.614 230.333 207.979 230.334 207.363 230.462C206.747 230.59 206.163 230.842 205.648 231.203L207.875 229.643C208.782 229.032 209.449 228.125 209.765 227.078C210.08 226.031 210.024 224.907 209.606 223.896C209.331 223.268 208.92 222.709 208.402 222.26C207.885 221.81 207.274 221.48 206.614 221.295C205.954 221.11 205.261 221.073 204.586 221.188C203.91 221.302 203.268 221.565 202.706 221.958L198.806 224.69C199.812 223.985 200.497 222.91 200.71 221.7C200.923 220.491 200.647 219.246 199.943 218.24V218.24C198.535 215.918 195.222 216.353 193.243 217.74L185.226 222.94L187.336 219.769C187.991 218.742 188.231 217.504 188.008 216.306C187.785 215.108 187.116 214.04 186.136 213.316C185.617 212.96 185.031 212.714 184.414 212.592C183.796 212.47 183.161 212.476 182.545 212.608C181.93 212.74 181.348 212.996 180.835 213.36C180.322 213.725 179.889 214.19 179.562 214.727L155.162 254.499L167.712 262.639C171.609 265.168 176.173 266.475 180.818 266.393C185.464 266.31 189.979 264.842 193.784 262.177L211.001 250.077C211.908 249.464 212.575 248.557 212.889 247.509C213.204 246.46 213.146 245.336 212.726 244.325V244.325Z" fill="#E98862"></path>
<path d="M193.92 228.164C193.821 228.183 193.718 228.167 193.629 228.119C193.54 228.07 193.471 227.992 193.434 227.898C193.396 227.804 193.393 227.7 193.424 227.603C193.455 227.507 193.519 227.425 193.604 227.37L199.04 223.917C199.088 223.886 199.142 223.865 199.199 223.854C199.255 223.844 199.313 223.845 199.369 223.857C199.425 223.869 199.479 223.893 199.526 223.925C199.573 223.958 199.613 224 199.644 224.049C199.675 224.097 199.695 224.151 199.705 224.208C199.715 224.264 199.714 224.322 199.701 224.378C199.688 224.434 199.665 224.487 199.631 224.534C199.598 224.581 199.556 224.621 199.507 224.651L194.071 228.104C194.025 228.133 193.974 228.154 193.92 228.164V228.164Z" fill="#E98862"></path>
<path d="M198.815 235.849C198.716 235.868 198.614 235.852 198.525 235.803C198.437 235.755 198.368 235.677 198.331 235.584C198.293 235.49 198.289 235.387 198.32 235.291C198.35 235.195 198.412 235.112 198.497 235.057L205.917 230.257C206.014 230.194 206.132 230.173 206.245 230.197C206.358 230.221 206.456 230.289 206.519 230.386C206.582 230.483 206.603 230.601 206.579 230.714C206.555 230.827 206.487 230.925 206.39 230.988L198.969 235.788C198.922 235.818 198.87 235.839 198.815 235.849Z" fill="#E98862"></path>
<path d="M204.07 244.2C203.969 244.221 203.864 244.205 203.774 244.156C203.684 244.107 203.614 244.027 203.577 243.931C203.539 243.835 203.537 243.729 203.571 243.632C203.604 243.535 203.671 243.453 203.76 243.4L207.318 241.217C207.416 241.157 207.535 241.138 207.647 241.165C207.759 241.192 207.856 241.262 207.916 241.361C207.977 241.459 207.996 241.577 207.969 241.69C207.942 241.802 207.871 241.899 207.773 241.959L204.215 244.142C204.17 244.17 204.121 244.189 204.07 244.2V244.2Z" fill="#E98862"></path>
<path opacity="0.17" d="M193.92 228.164C193.821 228.183 193.718 228.167 193.629 228.119C193.54 228.07 193.471 227.992 193.434 227.898C193.396 227.804 193.393 227.7 193.424 227.603C193.455 227.507 193.519 227.425 193.604 227.37L199.04 223.917C199.088 223.886 199.142 223.865 199.199 223.854C199.255 223.844 199.313 223.845 199.369 223.857C199.425 223.869 199.479 223.893 199.526 223.925C199.573 223.958 199.613 224 199.644 224.049C199.675 224.097 199.695 224.151 199.705 224.208C199.715 224.264 199.714 224.322 199.701 224.378C199.688 224.434 199.665 224.487 199.631 224.534C199.598 224.581 199.556 224.621 199.507 224.651L194.071 228.104C194.025 228.133 193.974 228.154 193.92 228.164V228.164Z" fill="#0C0C0C"></path>
<path opacity="0.17" d="M198.815 235.849C198.716 235.868 198.614 235.852 198.525 235.803C198.437 235.755 198.368 235.677 198.331 235.584C198.293 235.49 198.289 235.387 198.32 235.291C198.35 235.195 198.412 235.112 198.497 235.057L205.917 230.257C206.014 230.194 206.132 230.173 206.245 230.197C206.358 230.221 206.456 230.289 206.519 230.386C206.582 230.483 206.603 230.601 206.579 230.714C206.555 230.827 206.487 230.925 206.39 230.988L198.969 235.788C198.922 235.818 198.87 235.839 198.815 235.849Z" fill="#0C0C0C"></path>
<path opacity="0.17" d="M204.07 244.2C203.969 244.221 203.864 244.205 203.774 244.156C203.684 244.107 203.614 244.027 203.577 243.931C203.539 243.835 203.537 243.729 203.571 243.632C203.604 243.535 203.671 243.453 203.76 243.4L207.318 241.217C207.416 241.157 207.535 241.138 207.647 241.165C207.759 241.192 207.856 241.262 207.916 241.361C207.977 241.459 207.996 241.577 207.969 241.69C207.942 241.802 207.871 241.899 207.773 241.959L204.215 244.142C204.17 244.17 204.121 244.189 204.07 244.2V244.2Z" fill="#0C0C0C"></path>
<path d="M39.0209 378.916C33.8525 379.916 28.5187 379.652 23.4747 378.145C18.4306 376.637 13.8261 373.932 10.0538 370.26C6.28147 366.588 3.45351 362.058 1.81097 357.057C0.168435 352.055 -0.239916 346.731 0.620909 341.537L23.952 200.863C25.3681 192.324 30.1182 184.698 37.1574 179.661C44.1966 174.625 52.9482 172.591 61.487 174.007C70.0258 175.423 77.6522 180.173 82.6887 187.212C87.7251 194.252 89.7591 203.003 88.343 211.542L77.186 278.813L163.034 223.533L197.306 277.365L50.6899 374.179C47.1451 376.501 43.1815 378.11 39.0209 378.916V378.916Z" fill="#367CFF"></path>
<path d="M69.0809 362.527C68.9821 362.546 68.8795 362.531 68.7909 362.483C68.7022 362.435 68.633 362.358 68.5948 362.265C68.5567 362.171 68.5522 362.068 68.5819 361.972C68.6116 361.875 68.6739 361.792 68.7579 361.737L196.702 277.237L162.513 224.374L76.1619 278.459C76.0903 278.504 76.0072 278.527 75.9226 278.526C75.838 278.525 75.7557 278.499 75.6857 278.451C75.6156 278.404 75.561 278.337 75.5283 278.259C75.4957 278.181 75.4864 278.095 75.5018 278.012L82.7599 238.181C82.7701 238.125 82.7913 238.071 82.8223 238.023C82.8532 237.975 82.8934 237.934 82.9404 237.901C82.9874 237.869 83.0403 237.846 83.0962 237.834C83.152 237.822 83.2097 237.821 83.2659 237.831C83.3221 237.841 83.3757 237.862 83.4237 237.893C83.4717 237.924 83.5131 237.965 83.5456 238.011C83.5781 238.058 83.6011 238.111 83.6131 238.167C83.6252 238.223 83.6261 238.281 83.6158 238.337L76.5349 277.198L162.415 223.409C162.512 223.348 162.63 223.327 162.742 223.352C162.854 223.376 162.952 223.444 163.015 223.541L197.671 277.126C197.733 277.223 197.754 277.34 197.731 277.452C197.707 277.564 197.64 277.663 197.545 277.726L69.2449 362.461C69.1954 362.494 69.1396 362.517 69.0809 362.527Z" fill="#0C0C0C"></path>
<path d="M278.653 246.444C278.603 246.453 278.552 246.453 278.503 246.444C278.446 246.435 278.392 246.415 278.343 246.385C278.294 246.355 278.251 246.316 278.217 246.269C278.184 246.223 278.159 246.17 278.146 246.114C278.133 246.059 278.131 246.001 278.14 245.944L283.673 210.021C283.69 209.907 283.752 209.805 283.845 209.736C283.891 209.702 283.944 209.678 283.999 209.664C284.055 209.651 284.112 209.648 284.169 209.657C284.225 209.666 284.279 209.685 284.328 209.715C284.377 209.745 284.42 209.784 284.454 209.83C284.487 209.876 284.512 209.928 284.525 209.983C284.539 210.039 284.541 210.097 284.533 210.153L279 246.083C278.986 246.172 278.946 246.254 278.883 246.318C278.821 246.383 278.741 246.427 278.653 246.444V246.444Z" fill="#0C0C0C"></path>
<path d="M315.952 117.176L316.272 108.476C316.354 107.238 315.963 106.016 315.179 105.055C314.394 104.094 313.275 103.466 312.046 103.298C311.408 103.234 310.764 103.3 310.153 103.493C309.542 103.686 308.977 104.001 308.492 104.42C308.007 104.839 307.612 105.352 307.332 105.928C307.052 106.504 306.892 107.131 306.862 107.771L306.03 125.628" fill="#E98862"></path>
<path d="M347.691 128.114L324.271 108.104L337.082 16.597L363.574 38.3931L347.691 128.114Z" fill="#0CBC8B"></path>
<path d="M335.186 36.9001L338.299 19.2881C338.299 19.2881 341.754 32.7171 359.952 39.7981L359.301 54.2071L334.352 45.0861L335.186 36.9001Z" fill="#0CBC8B"></path>
<path opacity="0.49" d="M335.186 36.9001L338.299 19.2881C338.299 19.2881 341.754 32.7171 359.952 39.7981L359.301 54.2071L334.352 45.0861L335.186 36.9001Z" fill="white"></path>
<path d="M355.706 41.4471C355.706 41.4471 324.048 28.1791 298.766 33.4311L353.632 45.4311L355.706 41.4471Z" fill="#0CBC8B"></path>
<path opacity="0.81" d="M355.706 41.4471C355.706 41.4471 324.048 28.1791 298.766 33.4311L353.632 45.4311L355.706 41.4471Z" fill="white"></path>
<path d="M363.574 38.3931L354.217 42.0251L338.989 130.814L347.691 128.114L363.574 38.3931Z" fill="#0CBC8B"></path>
<path opacity="0.25" d="M363.574 38.3931L354.217 42.0251L338.989 130.814L347.691 128.114L363.574 38.3931Z" fill="white"></path>
<path d="M295.696 31.292L354.217 42.025L338.989 130.814L281.697 120.935L295.696 31.292Z" fill="#0CBC8B"></path>
</svg>